<?xml version="1.0" encoding="utf-8"?>
<!-- Generator: Adobe Illustrator 14.0.0, SVG Export Plug-In . SVG Version: 6.00 Build 43363)  -->
<!DOCTYPE svg PUBLIC "-//W3C//DTD SVG 1.1//EN" "http://www.w3.org/Graphics/SVG/1.1/DTD/svg11.dtd">
<svg version="1.1" id="Layer_1" xmlns="http://www.w3.org/2000/svg" xmlns:xlink="http://www.w3.org/1999/xlink" x="0px" y="0px"
	 width="580px" height="430px" viewBox="0 0 580 430" enable-background="new 0 0 580 430" xml:space="preserve">
<g id="counties">
	<g opacity="0.8">
		<path fill="#F2E1AC" stroke="#FFFFFF" d="M274.99,332.389l36.581,0.205l0,0h18.854v9.891h11.127v-10.096h28.438
			c0,0-3.401,13.805,9.271,2.062l2.477,4.943l4.942,0.617v4.021h6.491l6.186,8.653l26.579-60.586c0,0,26.896-25.42,31.839-29.709
			c4.946-4.291,108.185-94.544,108.185-94.544s-0.62-7.728-4.328-10.198c0,0-1.545-6.184-11.128-11.747
			c0,0,0.312-8.036-19.161-21.635l25.964-71.4L530.102,68.32L427.173,26.283c0,0-25.345,37.4-26.58,52.236
			c-1.234,14.838,5.453,20.204,5.453,20.204s-191.767,26.366-191.767,78.62C214.279,229.596,274.99,332.389,274.99,332.389z"/>
		<path fill="#F2E1AC" stroke="#FFFFFF" d="M153.623,276.029l-2.679,9.785c0,0-9.066-2.064-9.891,7.42l-14.427,9.479
			c0,0,1.647,6.592-2.471,7.418c-4.12,0.822-10.714,0-10.714,0v14.838c0,0-2.477,2.471-10.304,2.883
			c-7.83,0.412-24.314,4.531-24.314,8.651c0,4.124-8.655,9.067-8.655,9.067s-4.12,0.826-7.005-2.881c0,0-6.185,9.068-12.778,10.715
			c0,0-10.303,11.125-16.484,13.602c0,0-0.822,14.836-12.775,15.659c0,0-8.244,8.651,5.769,20.604c0,0,8.655,7.424-17.309,8.244
			h119.515c0,0,5.359,15.247,10.715,0c0,0,63.057-18.134,77.481-21.43V333.21l57.694-0.819l2.888-186.28
			c0,0,1.234-7.416,22.255,3.298c21.02,10.715,22.255-5.797,22.255-5.797s-0.82-16.87,11.127-18.106
			c11.951-1.235,26.379,0.411,18.545,7.004c0,0,14.015,3.71,13.188-13.185c0,0,4.943-11.942,25.136-12.357
			c0,0,9.071,1.647,15.662-8.243c0,0-12.777-6.592-23.082-4.532c0,0-7.828-5.772-7.828-7.833c0,0-8.237,3.296-9.888-6.18
			c-1.647-9.479-10.718-7.416-11.957-6.593c0,0-7.83-5.771-14.835-5.359c0,0-11.536-0.828-11.95-5.359
			c-0.414-4.534-0.414-44.095-0.414-44.095h-37.501l-4.537,2.473l-2.43,2.031l-3.338,0.441h-4.944l-0.414,27.202
			c0,0-2.063,7.005-13.6,4.945c0,0-9.448,10.336-20.574,8.687l-0.903,21.022"/>
		<path fill="#F2E1AC" stroke="#FFFFFF" d="M68.774,81.972v76.58l7.808,0.301l1.315,80.084h52.855l22.871,37.092l55.638-46.057
			l11.129,0.618l-2.474-20.711l2.474-0.31c0,0-0.619-9.893,7.418-10.82c0,0,2.471-16.69-3.4-16.69c0,0-0.309-10.201,13.291-15.454
			c0,0,39.564-29.981,18.236-37.709c0,0-6.8-7.727-5.563-13.602c0,0,2.164-12.672-8.962-22.255l-3.557-7.469L68.774,81.972z"/>
		<path fill="#F2E1AC" stroke="#FFFFFF" d="M316.575,152.196c0,0-0.367,24.306,20.342,32.032c0,0,16.692,20.399,21.327,20.399
			c4.637,0,26.271,9.582,33.073,23.8c6.8,14.22,27.511,30.294,31.215,30.294c3.711,0,23.156,14.805,23.156,14.805"/>
	</g>
</g>
<g id="zips">
	<path id="zip30342" fill="#F2594B" stroke="#FFFFFF" stroke-width="0.5" d="M274.154,178.272c0,0-1.2-0.369-1.99,1.828
		c0,0-3.398,2.196-10.314-1.746c0,0-2.523-1.011-6.577-1.011v22.717h-2.253l-0.337,1.044l-1.573,0.114v1.126l-5.185-0.114
		c0,0-0.901,2.59-1.8,3.38h2.926v3.942h7.771c0,0-1.801,3.828,3.604,2.59c0,0,6.306,5.631,6.531,6.981c0,0,0.677-4.729,6.757-5.179
		l0.226-17.345l3.04-0.337l-0.788-7.657c0,0,3.011,1.009,3.042-0.901c0.029-1.911-3.154-1.456-3.154-1.456L274.154,178.272z"/>
	<path id="zip30064" fill="#F2836B" stroke="#FFFFFF" stroke-width="0.5" d="M126.284,204.37c0,0-9.08-3.419-4.615-8.542
		c-0.043-6.191,0.078-15.193-1.557-18.566c-1.637-3.375-8.995-4.582-2.087-6.68v-6.457h-1.653c0,0,0.451-5.438-1.2-5.571
		c-1.651-0.132-2.554,3.617-2.402,4.52l-5.556,0.902c0,0-4.611,5.707-2.23-2.702c0,0-0.482-5.531-4.982-2.164l-3.449,1.262
		l0.152-10.893h7.883l0.225-3.219l-4.955-0.226l-0.451-1.802l-3.604-1.127c0,0-1.201-3.303,8.785-2.702c0,0,2.646-0.519,1.661,4.245
		c-0.986,4.765,13.522-4.245,13.522-4.245s0.83,12.318,4.273-0.073c0,0,1.792-5.784,5.32-2.63l0.225,8.784l5.631-4.73l-0.45,7.725
		l2.477-7.95l4.73,0.451c0,0-0.376,9.535,8.109-2.703c0,0,6.082,5.331,7.657-0.676l2.328,0.901c0,0,1.05,7.958,7.958,12.163
		c0,0,0.152,6.306,2.404,8.41c0,0-16.217,15.933-25.077,18.928c0,0-4.655,4.798-6.607,9.303
		C138.748,188.303,127.645,203.782,126.284,204.37z"/>
	<path id="zip30127" fill="#F2836B" stroke="#FFFFFF" stroke-width="0.5" d="M105.862,238.938H77.898l-0.472-28.706
		c0,0,7.266,7.5,9.592,0.218c0,0,6.859-4.359-2.089-9.124c-8.947-4.765-7.703-3.262-7.703-3.262l-0.385-23.422
		c0,0,4.38-1.997,4.997-5.41c0.616-3.412,1.203-5.854,2.478-6.981c0,0-3.207,2.192-7.648,1.809l-0.084-5.206l-3.529-1.108
		c0,0-1.904-6.671,0.45-8.334c2.354-1.664,4.505-4.505,4.505-4.505l-0.392,3.915l4.221,0.59l-0.043-6.46
		c0,0,1.246,4.209,4.773,1.504c0,0,1.842,3.581,5.855,5.021c0,0,1.878,11.63,4.281,0l-0.152,10.893c0,0,2.252-0.181,4.204-1.818
		c1.954-1.636,5.41,0.016,3.831,4.821c-1.578,4.804,2.627,0.601,2.627,0.601l5.556-0.9c0,0,0.3-4.387,2.402-4.521
		c0,0,1.35,0.768,1.2,5.572h1.653v6.457c0,0-5.555,1.214-0.751,4.061c4.805,2.847,3.454,6.149,3.903,9.753
		c0.451,3.604,0.751,10.961,0.751,10.961s-2.853,4.654,0,6.306s3.003,2.552,3.003,2.552s0.451,3.154-3.454,6.307
		c-3.903,3.153-15.166,8.559-15.466,13.063c-0.301,4.505,2.253,4.505,4.054,6.606C111.868,232.296,105.712,237.17,105.862,238.938z"
		/>
	<path id="zip30350" fill="#F2836B" stroke="#FFFFFF" stroke-width="0.5" d="M256.225,128.167c0,0,23.673-0.037,24.725-3.737
		c1.049-3.7,4.924-4.422,4.924-4.422s-1.321,6.45,2.583,8.167c0,0,1.955,5.619,1.277,7.421l2.178,1.051h8.561
		c0,0,6.429-4.93,4.113,1.817c-2.312,6.748,11.354,4.935,10.602-0.465c0,0,7.04,7.451,6.386,8.835s-3.948,13.089-29.792-1.175
		c0,0-14.547-7.66-13.964,4.654c0,0-3.921-0.139-4.222,1.883c0,0-0.151-3.684-2.403-3.534c-2.253,0.15-1.204,0.902-3.754,1.952
		c-2.553,1.05-6.908-0.15-6.908-0.15s-1.837-2.347-3.621-2.075C256.905,148.39,269.337,134.247,256.225,128.167z"/>
	<path id="zip30066" fill="#F2836B" stroke="#FFFFFF" stroke-width="0.5" d="M177.113,84.074l0.39,2.939
		c0,0,11.415-0.119,3.092,5.631c0,0,4.411,1.262,4.053,2.601c-0.357,1.339-2.259,6.024-4.672,1.49
		c-2.413-4.535-7.422-0.707-5.649,4.362c0,0,0.985,4.394-4.422,4.619v4.955l-8.783,0.226c0,0-2.134,0.356,3.381,5.81
		c0,0,0.89,0.61,1.007,2.862c0.118,2.252-2.487,3.298-2.349,4.854c0.137,1.555,0.432,4.157,2.349,5.396
		c1.918,1.239,25.682,0.562,25.682,0.562s11.036-16.217,14.303-16.893c3.266-0.676,14.414-7.546,15.43-14.753
		c0,0,2.252-5.18,12.162-6.194c0,0,6.421-3.972-1.351-4.464l0.225-2.625L177.113,84.074z"/>
	<path id="zip30097" fill="#F2836B" stroke="#FFFFFF" stroke-width="0.5" d="M369.182,86.332l-6.097,0.763v4.053l-7.358,0.869
		c0,0-0.592,2.514-1.5,3.488c-0.906,0.975-5.282,5.174,0.662,4.688c0,0,2.942,1.164,2.191,5.068h5.406l0.602,3.607
		c0,0-2.368,2.563-1.935,8.039c0,0-1.223,4.575-1.974,4.575c-0.749,0-5.554,0-5.554,0l-0.152,1.351h-4.204l-0.899,9.458l3.688,0.214
		c0,0,12.645,4.174,13.188-13.186c0,0,5.544-6.988,8.6-8.423c0,0-0.997,6.241,14.316,6.01c0,0,2.854,5.475,7.51,7.276
		c4.653,1.802,2.252,12.149,2.252,12.149s-0.898,1.815,3.002,1.966c0,0,7.358,3.303,13.065,2.403c0,0,1.052-5.708,5.407-9.61
		c4.354-3.904,3.604-4.805,3.604-4.805s-3.905,0.451-7.356-3.904c-3.454-4.355-6.606-6.758-6.309-11.714c0,0-8.048-1.226-7.929-6.92
		c0,0-0.909-1.979-1.146-7.439c0,0-11.087-3.135-17.299-2.12c0,0-7.489-4.967-7.827-7.833
		C375.136,86.357,371.188,87.87,369.182,86.332z"/>
	<path id="zip30005" fill="#F2836B" stroke="#FFFFFF" stroke-width="0.5" d="M332.196,67.119c0,0-13.482,8.387-14.571,20.714
		c0,0,14.752,2.857,18.092,5.115c0,0,4.694,1.961,11.753-2.396c0,0,6.757,0.3,6.757,4.956c0,0,1.051,0.534,1.499-3.488l7.359-0.869
		v-4.053l6.097-0.763c0,0-3.689-4.988-6.097-11.047c-2.404-6.058-9.797-1.701-9.797-1.701s-4.683-4.508-21.092-7.061"/>
	<path id="zip30076" fill="#F2836B" stroke="#FFFFFF" stroke-width="0.5" d="M270.587,81.972l-0.112,17.886l8.783,6.082
		c0,0,8.447,10.364,10.474,10.474c0,0-0.887,3.622-3.859,3.594c0,0-1.169,6.45,1.682,8.166c2.854,1.715,2.178,7.421,2.178,7.421
		l2.178,1.051h8.56c0,0,5.555-4.054,4.504,0c-1.052,4.055-0.752,5.857,4.354,6.007c5.104,0.149,5.855-4.656,5.855-4.656
		l-6.154-11.634c0,0,6.907-4.132,0.751-4.733c0,0-1.201,3.046-2.854,2.8c-1.651-0.247-1.352-7.155-1.352-7.155l7.509,0.451
		l2.854-1.802l2.103-1.35l0.602-4.354c0,0,2.252-3.546-6.455-2.899c0,0-0.603,0.496-1.503-2.807c0,0-1.501,0.601-5.257,1.051
		c-3.752,0.452-8.637-0.297-8.637-0.297s-1.271,3.006-3.677-1.802l-1.804,0.225c0,0,2.469-4.453,2.359-7.069
		c0,0,5.143-3.515,3.117-7.345c0,0-2.773,2.638-3.448-1.198c0,0-4.282,2.291-3.606-5.201l-2.027,1.202h-10.137L270.587,81.972z"/>
	<path id="zip30033" fill="#F2594B" stroke="#FFFFFF" stroke-width="0.5" d="M292.438,236.877v3.645h0.9v6.312h4.842v2.136h5.293
		v-1.848h14.528v-0.969h4.167v-3.717l2.142-1.013v-5.856h1.688v-1.127h1.803l-0.562-3.828l-1.464-1.801l-2.026-1.127h-1.689
		c0,0,0.34-1.465,1.466-2.93c1.126-1.464-1.689-2.363-1.689-2.363l-0.788-2.414c0,0-0.111-1.289-2.252,0l-3.604-0.854l-0.227,1.354
		l2.59,0.785v1.467l-0.45,1.353h-1.688l-0.565-1.465h-4.728v0.6v0.978h-2.479c0,0-0.899-1.912-2.479-0.109
		c0,0-4.391-0.676-2.139,2.477c2.25,3.151,0.336,3.041-0.228,3.268s-3.153,1.729-3.153,1.729l-0.449,0.975h-2.176v3.039
		l-4.582,0.338v0.969H292.438z"/>
	<path id="zip30068" fill="#F2594B" stroke="#FFFFFF" stroke-width="0.5" d="M245.267,160.286c0,0-3.735-6.818-2.383-12.451
		c0,0-11.562,1.203-12.539,5.332c0,0-3.753,0.233-4.729,1.276c-0.977,1.044-2.176,2.327-2.176,2.327s-8.188-1.2-8.225,4.505
		c0,0-5.64,1.674-12.073-3.519c0,0-4.03-1.961-10.485-1.437c0,0,10.21-8.935,10.511-11.938v-1.201h8.333l-0.073-1.126h2.027v-1.35
		h17.494l0.226-1.125h1.65l1.653-1.126l1.102-1.353l2.276-0.901l1.726-1.578l0.977-1.426l1.577-0.901l1.426-1.425l1.354-1.051
		l1.049-1.652l1.427-0.602l1.127-0.375v-0.826H254c0,0,1.424,1.502,4.729,3.379C262.029,131.618,267.584,141.654,245.267,160.286z"
		/>
	<path id="zip30327" fill="#F2594B" stroke="#FFFFFF" stroke-width="0.5" d="M220.093,228.124l-2.177-18.241l2.432-0.782
		c0,0,0.268-10.556,7.46-10.348c0,0,0.831-10.398-0.38-14.047c0,0,6.229,4.319,8.698-0.805c0,0,2.166-5.266,3.83-5.987l15.317-0.571
		v22.717h-2.253l-0.338,1.044l-1.572,0.114v1.516l-5.185-0.504l-0.658,2.14l-1.145,1.24h2.928v6.87h-1.239l0.113,7.659h-1.352v2.59
		h1.352v9.571l-2.928-1.354l-0.226-1.799h-1.915l0.113,2.478h-2.926l-0.113,4.168h-1.335v1.086h-1.706l-0.113-1.196l-1.914-0.226
		v-2.142l-2.365-0.111l-0.113-3.717l-3.604-0.226v-1.577l-1.125-1.125h-0.9v2.928L220.093,228.124z"/>
	<path id="zip30080" fill="#F2594B" stroke="#FFFFFF" stroke-width="0.5" d="M205.64,232.3c0,0-5.453-2.733-6.516-8.573
		l-18.48-21.834l-6.157-15.017l0.375-6.72l4.616-0.056v1.295c0,0,2.141,0.148,1.578,1.576h4.73l0.843,6.532l1.746-1.239
		c0,0,6.983,1.688,7.659-2.365c0,0,3.153,5.555,7.545-2.027c0,0,4.242-0.375,5.894,2.33c1.652,2.702,4.205,3.302,4.205,3.302
		l-2.254,3.605l0.452,3.003c0,0-6.016,7.896-6.236,17.538c0,0-1.872,3.485,4.285,3.485c0,0-1.649,5.597,9.46,5.052l1.005,8.405
		l-11.129-0.616L205.64,232.3z"/>
	<path id="zip30328" fill="#F2594B" stroke="#FFFFFF" stroke-width="0.5" d="M256.905,148.39c0,0,1.669-0.363,3.622,2.075
		c0,0,6.274,1.615,8.449-0.734c0,0,3.123-3.339,4.562,1.944c0,0,1.703-1.7,4.275-1.363v12.162c0,0-8.984,2.026-0.278,5.744
		l-0.139,9.015c0,0-5.232,1.122-5.232,2.866c0,1.747-10.157-0.394-10.314-1.745c-0.16-1.351-23.695-0.901-23.695-0.901
		s-3.266-0.901-4.505,2.647c-1.239,3.548-6.22,4.606-6.22,4.606s-3.027-4.337-3.021-2.641c0,0,1.913-12.671,13.291-15.455
		C237.698,166.61,256.736,151.086,256.905,148.39z"/>
	<path id="zip30319" fill="#CD2C24" stroke="#FFFFFF" stroke-width="0.5" d="M274.154,178.272c0,0,8.898-5.136,17.306-4.686v3.755
		l-0.75,0.572l-0.149,4.533h1.801v21.772h2.104v1.981h2.558v2.373c0,0-9.915,9.687-10.062,10.55c-0.151,0.862-3.754,0-3.754,0
		l-0.75,3.082l-2.704,3.036c0,0-1.501-6.064-1.351-6.709c0.149-0.648-1.602-2.562-1.602-2.562l-5.082-2.029l0.224-17.343
		l3.042-0.338l-0.789-7.657c0,0,6.682-0.057-0.113-2.356L274.154,178.272z"/>
	<path id="zip30305" fill="#CD2C24" stroke="#FFFFFF" stroke-width="0.5" d="M247.051,209.551v2.927h-1.239l0.113,7.658h-1.352
		v2.591h1.352v9.123l-2.981-1.317l-0.174-1.386h-1.914l0.092,2.035l-2.908,0.439v1.916h2.478l-0.113,1.127h4.862v2.213h2.347
		l0.901-0.749l0.9-0.676l1.127-0.113l1.239-1.351l1.126-0.676l1.015,0.898l0.562,0.789c0,0,0.113,1.945,1.351,1.875s3.715,0,3.715,0
		v-1.423l4.28,0.336v-4.056h1.127c0,0,2.152-5.741,5.918-6.868v-5.115c0,0-2.766,0.608-5.918-0.628c0,0-5.294-6.307-6.533-6.983
		c0,0-5.18,1.69-3.604-2.589L247.051,209.551L247.051,209.551z"/>
	<path id="zip30022" fill="#CD2C24" stroke="#FFFFFF" stroke-width="0.5" d="M296.788,105.265l6.687-8.108
		c0,0,13.737-1.079,14.152-9.323c0,0,9.423,1.447,15.43,4.187c6.009,2.736,10.962,0.634,14.416-1.468c0,0,6.759,0.149,6.759,4.955
		c0,0-4.956,4.655,0,4.655c0,0,2.853-0.607,2.853,5.102h5.405l0.603,3.606c0,0-1.202,0.301-1.65,5.857
		c-0.453,5.555-2.256,6.757-2.256,6.757h-5.555l-0.15,1.35h-4.204l-0.376,2.941c0,0-27.798-9.522-26.736,19.179l-0.282,1.028
		l-6.688-7.987l-6.159-11.635c0,0,6.906-3.685,0.752-4.732c0,0-4.505,8.555-4.205-4.354l7.507,0.451l4.956-3.153
		c0,0,4.055-8.956-5.855-7.254c0,0-1.354-1.91-1.501-2.807C310.681,104.511,301.645,106.918,296.788,105.265z"/>
	<path id="zip30062" fill="#CD2C24" stroke="#FFFFFF" stroke-width="0.5" d="M233.238,92.919c0,0-9.763,0.916-12.163,6.194
		c-2.4,5.278-6.345,11.863-15.429,14.753c0,0-6.008,4.017-14.302,16.893c0,0-24.816-0.037-33.9-1.015l-0.776,3.047
		c0,0,1.218,4.387,8.993,6.639c7.776,2.251,15.66,10.46,19.651,17.207l7.494,0.062c0,0,10.359-9.009,10.512-13.141h8.333
		l-0.075-1.126h2.026v-1.351h17.494l0.226-1.127h1.651l2.754-2.477l2.275-0.901l1.729-1.577l0.975-1.427l1.576-0.901l1.818-1.731
		l0.959-0.747l1.051-1.652l2.553-0.976v-0.827h5.483l-2.754-4.981l-7.833-0.2v-5.405l-4.205,0.15V112.7l-6.604-0.451l-0.15-1.802
		l-2.554-0.912l2.102-3.442l0.151-9.31l1.202-1.502L233.238,92.919z"/>
	<path id="zip30075" fill="#CD2C24" stroke="#FFFFFF" stroke-width="0.5" d="M231.523,85.806l-0.225,2.625
		c0,0,7.432,0.185,1.351,4.464l0.265,2.365l-1.202,1.501l-0.15,9.31l-2.102,3.442l2.553,0.912l0.15,1.802l6.606,0.451v3.079
		l4.204,0.374v5.405l7.834,0.201l2.344,4.376l2.635,2.409c0,0,22.021,0.337,24.725-3.736c2.703-4.074,2.703-4.074,2.703-4.074
		s5.519-0.112,6.083-3.941c0,0-9.235-7.095-10.475-10.473l-8.782-6.083l0.112-17.887c0,0,4.955,0.994-0.902-7.565
		c-5.856-8.559-9.071-10.05-8.309-18.258l-2.051-0.283c0,0-8.486,9.646-20.574,8.688l-0.901,21.021L231.523,85.806z"/>
	<path id="zip30309" fill="#CD2C24" stroke="#FFFFFF" stroke-width="0.5" d="M245.267,236.877h-2.046v1.505h1.025l1.792-0.753
		l1.688,0.753l0.676,1.351v1.576v1.578l-2.59,0.452l-1.015,1.353l2.365-0.563v2.142h2.591v-1.127l3.041,0.111v2.023h1.665
		l-0.538,5.186l0.538,2.251v1.015h10.498v-1.015l-0.562-0.45l-0.338-10.023l-1.013-0.223v-2.59h-2.928L259.665,243l-2.252-0.223
		l-2.14-1.916l1.125-0.9l-0.106-3.1c0,0-1.582,0.171-1.807-1.854l-1.577-1.688l-2.365,2.027l-1.127,0.111l-1.801,1.424h-2.346
		v-0.004H245.267L245.267,236.877z"/>
	<path id="zip30324" fill="#F2594B" stroke="#FFFFFF" stroke-width="0.5" d="M270.876,224.866c0,0-4.793,2.815-5.919,6.87h-1.126
		v4.053l-4.279-0.337v1.425l-3.261-0.02l0.107,3.1l-1.127,0.9l2.141,1.914l2.251,0.224l0.452-1.576h2.928v2.59l1.014,0.224
		l0.087,2.597h6.733v-2.312h2.302c0,0-3.295-4.225,0-6.025c3.296-1.803,3.273-0.338,3.273-0.338l2.02,0.224l1.352,1.24l2.365-0.113
		l1.689-1.351V235h-2.703v-1.691c0,0,3.041-0.224,2.703-3.039l0.027-0.787l-4.868-0.11c0,0-1.052-3.418,0.713-4.129l-1.354-6.707
		c0,0-0.021-1.968-1.943-2.267c0,0-0.909,1.616-2.713,1.502l-0.45,1.354h-1.239l-1.176,0.629L270.876,224.866L270.876,224.866z"/>
	<path id="zip30306" fill="#CD2C24" stroke="#FFFFFF" stroke-width="0.5" d="M264.144,246.831l0.25,7.43
		c0,0,1.351-0.338,1.351,1.464c0,1.801,2.028,1.576,2.028,1.576v1.014v1.354h1.126v1.351h0.689v0.941v1.312h1.288h1.514h1.238v-1.24
		l2.026-0.071l1.579-2.181l2.926-0.562l0.789-2.141l1.577-1.354l0.676-0.673l0.701-0.677v-1.691v-1.463l1.438-0.451v-1.802
		l1.352-0.786v-3.267l-0.899-1.239l-1.428-0.787l-0.462-2.025v-1.576l-0.026-1.127l-1.689,1.35l-2.364,0.113l-1.354-1.238
		l-2.019-0.225c0,0-8.002-1.126-3.272,6.361h-2.303v2.312L264.144,246.831L264.144,246.831L264.144,246.831z"/>
	<path id="zip30004" fill="#CD2C24" stroke="#FFFFFF" stroke-width="0.5" d="M261.378,56.148c0,0,12.497,0.913,11.641-11.25
		s0.322-21.181,0.322-21.181h4.946l3.338-0.44l2.43-2.032l4.537-2.474h37.501v41.895c0,0-0.085,6.373,6.104,6.452
		c0,0-14.533,10.215-14.533,19.901s-14.191,10.136-14.191,10.136s-5.938,5.856-6.687,8.108c-0.749,2.253-2.55,0-2.55,0l-1.127-1.802
		l-1.801,0.225c0,0,1.801-2.927,2.254-6.531c0.451-3.604,4.42-0.677,3.224-7.884c0,0-3.224,2.785-3.448-1.198
		c0,0-4.732,2.137-3.606-5.202l-2.027,1.202h-10.137l-6.982-2.102c0,0,4.879,0.359-0.902-7.565
		C263.905,66.483,260.277,63.118,261.378,56.148z"/>
	<path id="zip30338" fill="#CD2C24" stroke="#FFFFFF" stroke-width="0.5" d="M277.537,168.218c0,0-10.4-1.69,0.278-5.744
		l0.117-14.64c0,0-2.055-6.199,9.49-3.888c0,0,22.414,10.679,22.537,8.896c0,0,0.871,2.723-3.183,2.874l-0.298,0.984l1.199,1.269
		v5.406l-3.152,0.601v0.751h3.152l0.149,1.812c0,0,2.614-0.011,2.207,2.242c-0.405,2.252,1.546,1.502,1.546,1.502l1.201,0.601
		l-1.352,1.652l-1.052,1.023h-2.852l-1.202,0.929l-2.553-0.929l-12.313,0.028l-3.302-0.028
		C291.479,166.703,275.266,168.167,277.537,168.218"/>
	<path id="zip30318" fill="#F2594B" stroke="#FFFFFF" stroke-width="0.5" d="M220.093,228.124l0.297,2.469l-10.729-1.233
		l-10.211,8.734c0,0,1.788,4.002,3.692,5.467c0,0,1.114,4.619-2.942,7.885c-4.053,3.266-2.062,10.587-0.749,11.826
		c1.312,1.238,3.79,5.182,11.673,4.279l2.929,0.133v-1.822l3.861-0.225c0,0-0.484-2.363,4.809-2.363s4.281,2.479,4.281,2.479
		l5.18-0.113l-0.562-2.361h16.893c0,0,1.351-1.354,1.014-2.592c-0.339-1.238-2.591-1.465-2.591-1.465s-0.274-3.49,7.522-3.49
		l-0.435-4.269c0,0-2.807-1.476-3.033,0.103l-5.519,0.11l-0.113-1.914l-1.238-1.85v-2.654l1.688-1.914l2.589-0.452v-3.15
		c0,0-0.337-1.957-2.364-2.104c-2.026-0.147-1.792,0.753-1.792,0.753h-1.023v-1.505h2.045v-2.211h-4.861l0.112-1.128h-2.476
		l-0.113,2.254h-1.335v1.085h-1.706l-0.113-1.196l-1.914-0.226v-2.142l-2.365-0.111l-0.113-3.717l-3.604-0.227v-1.576l-1.126-1.127
		h-0.899v2.93L220.093,228.124z"/>
	<path id="zip30043" fill="#F2594B" stroke="#FFFFFF" stroke-width="0.5" d="M423.002,126.288l-4.144,5.322c0,0,1.717-0.082,0,0
		s-4.867,9.094-4.867,9.094l-2.254,5.281l1.352,2.224l1.353,1.352l16.517,0.601c0,0,9.911,3.603,16.219-0.901
		c6.309-4.504,15.314-12.161,40.842-12.463c0,0-2.104-2.102,3.604-3.755c0,0-0.899-3.153,1.202-4.204v-10.962
		c0,0,9.608-6.606,12.614-7.208c0,0,0-4.655-3.154-4.805c-3.151-0.15-6.756,0-6.756,0l0.302-2.402c0,0-9.911,5.105-11.565,1.652
		c-1.65-3.455,0.753-3.304,0.753-3.304s1.353-3.304,5.404-1.351s1.651-1.802,1.651-1.802l-1.201-1.351l-1.503-1.774l-1.95,1.025
		l-2.104,1.352l-1.65,2.102l-1.502,3.455l-1.502-1.201l-0.603-3.303l-0.448-1.802h-5.257l-1.201,2.853l-0.45,2.853l-2.554,1.201
		l-3.151-2.102c0,0-1.202-2.102-3.152-2.251c-1.953-0.15-0.451-3.304-0.451-3.304l-2.104-2.253l-4.054,0.751l-0.752,0.628
		l-1.652,1.173l-1.951,0.15l-0.604,0.6l-1.5,0.451h-0.9v0.901l-1.051,0.299l-1.952,0.602c0,0-2.403,2.103,0.601,3.604
		c3.007,1.501,3.454,0.299,1.354,3.454c-2.104,3.155-5.104,7.058-2.253,8.41c2.854,1.352,7.059-1.051,6.907,3.303
		c-0.149,4.355-2.703,3.304-2.703,3.304l-0.751,4.354l-1.652-0.9l-5.555-0.149v2.101l-1.051,0.751l-1.503-0.451l-0.451-1.352
		l-3.303-0.601l-1.051-3.454l-0.902-1.352l-1.801-3.821c0,0-1.648,2.019-1.648,3.521c0,1.501-2.557,1.351-2.557,1.351v2.102
		l-1.648,0.451l-0.3,2.703L423.002,126.288z"/>
	<path id="zip30024" fill="#CD2C24" stroke="#FFFFFF" stroke-width="0.5" d="M404.154,65.96c0,0-9.798,19.371,1.013,31.871
		l-4.904-1.521c0,0-2.522,10.984,9.074,14.36c0,0,0.285,4.215,1.854,6.239c0,0,6.007,9.333,10.753,9.344c4.744,0.01,4.062,0,4.062,0
		l0.9-1.919l1.647-0.674v-1.878c0,0,2.407,1.103,2.744-2.339c0.334-3.44,1.461-2.533,1.461-2.533l2.817,5.538l0.938,3.087
		l3.302,0.601l0.451,1.352l1.502,0.45l1.052-1.049v-1.803l5.556,0.149l1.651,0.902l0.75-4.354c0,0,2.622,0.667,2.7-3.758
		c0,0,1.281-2.832-5.965-2.539c0,0-5.773,0.184,2.573-10.723c0,0-6.589-1.976-3.212-5.051c3.379-3.077-2.779-0.449,7.959-11.335
		l-2.176-0.376c0,0-5.331,6.458-5.105-0.675c0.22-6.984-3.665-5.906-4.459-1.839c-0.015,0.086-0.032,0.174-0.045,0.263
		c-0.676,4.279-0.148,1.576-0.148,1.576s-1.43-5.631-3.904-5.631c-2.479,0-1.651,1.878-3.305,1.728
		c-1.649-0.15,0.754-3.678-1.428-3.678c-2.176,0-2.327,1.276-4.882,1.351c-2.551,0.075-4.504,0.525-3.227-3.604
		c1.274-4.13-2.028-5.855-2.253-5.855c-0.228,0-4.281-0.827-5.859-2.553C416.466,67.353,405.132,65.919,404.154,65.96z"/>
	<path id="zip30030" fill="#F2594B" stroke="#FFFFFF" stroke-width="0.5" d="M298.18,248.967l-1.164,1.717v1.14h-1.201v0.601h-1.353
		h-0.751v1.651v1.649v2.553l1.379,1.053v4.652l0.854,0.603v6.308c0,0,0.168,1.952,4.677,0h6.755v1.502h3.755
		c0,0,0.302,1.951,3.756,0c3.451-1.953,3.604-3.904,3.604-3.904l-0.901-4.055l0.901-3.32v-1.786c0,0-5.03,1.502-1.914-2.702
		c0,0,1.762,0.751,1.914-2.104c0.148-2.854-0.604-3.84-0.604-3.84l0.112-3.563h-14.528v1.847H298.18L298.18,248.967z"/>
	<path id="zip30345" fill="#F2836B" stroke="#FFFFFF" stroke-width="0.5" d="M305.161,224.077c0,0,1.239-2.14,2.479,0.112h2.479
		v-1.576h4.729l0.564,1.462h1.688l0.451-1.353v-1.463l-2.59-0.785l0.227-1.354l3.604,0.853c0,0,1.423-1.043,1.838-0.521
		c0,0,0.717-2.386,1.468-2.502c0.748-0.118,2.627,0,2.627,0l1.277-0.054v-1.189h3.753c0,0,0.526-3.229,0-5.78
		c-0.523-2.554-4.053-1.577-4.053-1.577l-0.452-3.379l-2.703-0.676h-4.505l-1.049-1.2l-0.979-1.577l-1.276-0.825l-2.102,1.576
		l-1.354,1.578l-2.325,1.049l-0.604,1.305h-1.35l-0.9,1.1l-1.576-0.15l-0.553-1.275h-2h-4.953v2.702l0.75,0.977h1.575v1.578h-2.93
		v1.802c0,0-2.627,0.072-2.324,3.338c0.302,3.268-0.075,0.641,0.601,1.914c0.678,1.278,0.074,1.278,0.074,1.278h2.701l0.751,0.976
		h1.579v3.604h-1.65l-1.203,1.2v1.354l2.027,1.2c0,0,0.225,2.401-0.224,3.151h1.952c0,0,2.141-1.238,3.275-1.674
		C306.109,228.454,299.029,223.213,305.161,224.077z"/>
	<path id="zip30307" fill="#F2836B" stroke="#FFFFFF" stroke-width="0.5" d="M270.876,263.27h2.752v-1.237l2.026-0.073l1.578-2.182
		l2.927-0.562l0.789-2.141l2.954-2.703v-3.151l1.438-0.453h2.928c0,0,0.677,2.256,3.267,0l2.177-0.082l-0.375-3.854h4.843v2.135
		l-1.164,1.72v0.646l-1.203,0.486v0.604h-2.102v5.855l1.38,1.052v4.653h-2.657v1.086h-1.127v0.562l-0.676,1.016l-0.788,0.562h-1.464
		h-1.688h-0.563v1.24v1.127h-1.601h-0.625h-1.041h-1.576v1.351h-1.577h-7.997h-0.838v1.128h-1.286v0.678h-1.364v-3.154v-1.895h1.364
		l-0.689-1.484l0.689-0.112l1.29-1.237L270.876,263.27L270.876,263.27z"/>
	<path id="zip30047" fill="#F2836B" stroke="#FFFFFF" stroke-width="0.5" d="M402.353,172.61h-8.107l-1.238,0.563l-1.577,1.013
		h-1.576l-0.676,2.702l-1.464,1.802l-1.351,0.675v1.464l-3.153-0.901c0,0,0-3.942-1.465-3.942c-1.462,0-1.688,3.604-1.688,3.604
		l-2.591-0.675h-2.253l-0.897,3.266v1.803h-3.267l1.802,1.24l-0.678,1.35v1.802v1.689l-2.927,0.676v2.589h2.813v3.042h2.256v4.392
		h-1.916l0.562,3.379c0,0,1.915,3.491,7.434,5.744c5.519,2.252,5.404,3.379,5.404,3.379v-4.054l1.689,5.404l3.939,0.676l0.902,2.142
		l1.239,3.267l3.825,1.127l3.49-0.562c0,0,5.294-0.113,5.52,6.53s2.592,3.38,2.592,3.38v4.506c0,0,0.787,5.969,4.729,0
		c0,0,2.817-0.226,3.152,0.785c0.338,1.014,2.366,1.864,2.366,1.864s3.716,1.74,2.027-1.522c-1.691-3.268-5.972-4.506-3.943-8.787
		c2.028-4.278,1.239-2.701,1.239-2.701l-2.479-1.127l3.944-2.028l0.337-2.7l3.491-0.227l3.15-0.111l0.679-1.803l1.802-2.364
		l1.914,0.451l-1.238-7.996c0,0,4.955-3.604,4.955-6.87c0-3.266,1.688-2.59,2.364-4.28c0.674-1.689-1.577-2.589-1.577-2.589
		l-4.729-0.226l-1.464-0.226l-5.404,3.154l-6.868,0.113l-0.112-3.378l-7.658-0.114l-0.112-2.815l-6.13-0.695l-2.09-0.655
		l0.112-3.716c0,0,2.141-0.225,1.463-4.392c0,0,2.702,0,2.14-5.406C404.492,169.908,402.353,172.61,402.353,172.61z"/>
	<path id="zip30044" fill="#F2836B" stroke="#FFFFFF" stroke-width="0.5" d="M395.821,171.935v-2.403l-1.651-1.051l-1.353-1.651
		l-1.65-1.502c0,0-0.9-4.654,2.328-3.904c3.227,0.751,4.578-0.081,4.578-0.081s1.352-2.623,0-4.574
		c-1.354-1.95-1.79-2.703,1.958-2.703s3.748,1.803,7.804,1.502c0,0,1.801-0.302,1.801,1.201l5.257-0.299l-0.602-2.402l-1.503-0.751
		l0.604-4.806l1.05,1.051l16.071,0.584c0,0,0.106,2.757,1.348,3.208c1.236,0.449,4.053,0.449,4.053,0.449v3.379l1.704-0.113
		l1.146,1.689l1.99,1.464l1.24,0.902l1.688,1.239l2.816,0.563h3.151v1.576c0,0-2.142,0.225-2.025,2.478
		c0.113,2.252,3.264,2.59,3.264,2.59l1.239,0.788l0.789,1.576l1.464,1.916h5.405c0,0,3.264,0.337,0.675,4.731
		c-2.59,4.391-1.613,4.954-1.876,6.418c-0.264,1.464-2.289,0.789-2.289,0.789l-0.677,0.901c0,0-1.802,1.239-2.93,0
		c-1.125-1.239-1.015-2.251-1.015-2.251l-1.352-0.113c0,0,0.074,1.238-4.639,1.576c-4.708,0.338-4.146,0.452-5.158,2.141
		c-1.016,1.689-2.254,2.026-3.829,2.476c-1.575,0.451-3.04,0.564-3.04,0.564h-1.688l-0.788,2.366l-1.463-0.225l-5.007,2.92
		l-7.27,0.347l-0.111-3.379l-7.676-0.559l-0.098-2.371c0,0-6.98-0.562-8.222-1.351l0.112-3.716c0,0,2.364-1.014,1.464-4.392
		c0,0,3.04-0.676,2.14-5.405c-0.9-4.731-2.703-2.703-2.703-2.703h-6.756L395.821,171.935z"/>
	<path id="zip30092" fill="#F2836B" stroke="#FFFFFF" stroke-width="0.5" d="M351.408,132.47v2.826l-1.986,1.04l0.991,2.565
		l3.963,0.752c0,0,0.902,3.637-1.051,4.295c-1.951,0.659,0.603,1.26,0.603,1.26h4.955l-31.082,18.77c0,0-8.02-2.689-6.188-7.275
		c1.831-4.587,4.94,2.351,2.729-5.175c-2.207-7.527-2.103-4.817-2.103-4.817s-5.254-28.5,26.652-20.933l-0.522,6.518L351.408,132.47
		z"/>
	<path id="zip30308" fill="#F2836B" stroke="#FFFFFF" stroke-width="0.5" d="M254.459,255.725c0,0-6.846-0.562-7.522,3.491
		c0,0,2.557,0.785,2.591,1.464h4.561v1.28l1.972,0.072l0.563,1.239l1.462,1.013h2.028l1.126-1.013h3.717v1.013h3.942l0.689-1.013
		v-2.256h-0.689v-1.351h-1.126V257.3c0,0-2.141,0.452-2.028-1.577h-11.286V255.725z"/>
	<path id="zip30341" fill="#F2836B" stroke="#FFFFFF" stroke-width="0.5" d="M291.46,173.586v3.755l-0.75,0.572l-0.149,4.533h1.801
		v21.772h2.104v1.981l2.556-0.328h6.953l0.555,1.275l1.576,0.15l0.899-1.1h1.351c0,0,0.377-1.528,2.931-2.354
		c0,0,1.877-2.889,3.454-3.153c0,0,2.217,2.291,3.303,3.603c0,0,5.893-0.299,7.207,0.677l0.453,3.379c0,0,3.342-0.635,3.756,0.827
		c0,0-0.867-7.511,1.609-7.172c0,0-1.015-2.732,3.941-2.606s3.266-4.603-1.24-4.603c-4.504,0-5.967-2.028-5.967-2.704
		c0-0.675-5.294-0.451-7.771,3.265c-2.479,3.716-5.647,1.803-8.004-0.562c-2.357-2.366-2.586-5.969-2.586-5.969l-1.575-0.676
		l-0.338-14.594l-1.2,0.928l-2.291-0.928L291.46,173.586z"/>
	<path id="zip30019" fill="#F2836B" stroke="#FFFFFF" stroke-width="0.5" d="M495.15,88.146v4.28c0,0,5.332-0.021,1.127,3.104
		c0,0,7.885,3.201-0.449,7.931l-0.302,2.402c0,0,10.511-2.854,9.908,4.805l-12.612,7.208v10.962c0,0-2.027,1.576-1.203,4.204
		c0,0-5.33,1.05-3.604,3.755l3.979,1.127l2.929,2.936h6.081l-0.676,3.371h6.082v-1.802c0,0,7.656,2.702,4.054,6.081
		c0,0-0.901,3.154,4.056,5.631c0,0-1.577,3.379-2.703,4.279c-1.125,0.9,0.899,7.658,2.703,9.46c1.802,1.802,3.826,1.127,5.856,5.631
		c2.025,4.504,4.054,6.981,5.405,7.657c1.351,0.676,5.181,2.703,8.333,3.829c3.15,1.126,10.11,1.84,10.11,1.84l14.199-12.411
		c0,0-4.938-2.042-1.788-5.421c3.152-3.379-2.702-6.531-4.504-8.333c-1.802-1.802-1.637-14.773-1.637-14.773
		s-2.118-10.518-19.161-21.635c0,0,1.428-11.567-4.653-5.936c0,0-8.617-4.956-3.633-6.533c0,0,2.282-4.054-1.771-6.757l4.055-1.577
		c0,0,0.9-4.919,4.278-6.514c0,0-6.309-2.945-8.333-5.423c-2.026-2.478-5.858-1.576-6.083-8.334
		C515.196,83.19,506.188,82.064,495.15,88.146z"/>
</g>
<g id="countyoutline">
	<g>
		<path fill="none" stroke="#FFFFFF" d="M268.772,333.186c2.955-0.045,6.204-0.09,6.204-0.09l36.581,0.206l0,0h18.855v9.892h11.127
			v-10.098h28.438c0,0-3.398,13.807,9.271,2.062l2.474,4.943l4.947,0.619v4.02h6.491l6.181,8.654l26.583-60.588
			c0,0,26.894-25.421,31.837-29.709c4.944-4.289,108.185-94.547,108.185-94.547s-0.617-7.727-4.326-10.2
			c0,0-1.544-6.183-11.13-11.747c0,0,0.311-8.036-19.159-21.635l25.963-71.4L530.09,69.024L427.157,26.991
			c0,0-25.348,37.4-26.581,52.235c-1.239,14.839,5.452,20.205,5.452,20.205"/>
		<path fill="none" stroke="#FFFFFF" d="M153.607,276.739l-2.679,9.784c0,0-9.066-2.063-9.891,7.418l-14.427,9.479
			c0,0,1.647,6.593-2.471,7.417c-4.12,0.822-10.714,0-10.714,0v14.838c0,0-2.476,2.471-10.302,2.883
			c-7.831,0.412-24.315,4.531-24.315,8.651c0,4.124-8.655,9.067-8.655,9.067s-4.12,0.824-7.006-2.883c0,0-6.184,9.07-12.778,10.715
			c0,0-10.303,11.127-16.485,13.604c0,0-0.82,14.836-12.774,15.659c0,0-8.244,8.651,5.77,20.604c0,0,8.654,7.425-17.309,8.244
			h119.515c0,0,5.358,15.247,10.714,0c0,0,63.056-18.134,77.481-21.43v-56.87l57.697-0.818l2.887-186.281
			c0,0,1.234-7.416,22.256,3.298c21.015,10.714,22.251-5.798,22.251-5.798s-0.82-16.871,11.13-18.105
			c11.948-1.235,26.377,0.41,18.546,7.004c0,0,14.01,3.71,13.188-13.185c0,0,4.94-11.943,25.135-12.357
			c0,0,9.072,1.646,15.664-8.244c0,0-12.777-6.592-23.082-4.531c0,0-7.826-5.774-7.826-7.833c0,0-8.241,3.295-9.891-6.182
			c-1.648-9.478-10.719-7.417-11.957-6.592c0,0-7.829-5.773-14.835-5.359c0,0-11.536-0.828-11.947-5.359
			c-0.415-4.534-0.415-44.096-0.415-44.096h-37.5l-4.538,2.474l-2.431,2.031l-3.338,0.44h-4.943l-0.415,27.202
			c0,0-2.063,7.006-13.599,4.946c0,0-9.449,10.336-20.574,8.687l-0.901,21.022"/>
		<path fill="none" stroke="#FFFFFF" d="M68.758,82.68v76.581l7.809,0.301l1.315,80.084h52.854l22.871,37.092l55.637-46.057
			l11.128,0.617l-2.473-20.71l2.473-0.31c0,0-0.619-9.894,7.418-10.82c0,0,2.472-16.689-3.4-16.689c0,0-0.308-10.202,13.291-15.455
			c0,0,39.565-29.982,18.237-37.709c0,0-6.799-7.728-5.564-13.602c0,0,2.164-12.672-8.964-22.255l-3.553-7.469L68.758,82.68z"/>
		<path fill="none" stroke="#FFFFFF" d="M316.558,152.905c0,0-0.363,24.304,20.345,32.032c0,0,16.689,20.399,21.325,20.399
			c4.639,0,26.273,9.582,33.073,23.801s27.511,30.293,31.217,30.293c3.708,0,23.155,14.805,23.155,14.805"/>
	</g>
	
		<text transform="matrix(1 0 0 1 135.9297 322.7979)" opacity="0.6" fill="#808080" enable-background="new    " font-family="'Arial-BoldMT'" font-size="24.1014">FULTON</text>
	
		<text transform="matrix(1 0 0 1 317.124 287.4395)" opacity="0.6" fill="#808080" enable-background="new    " font-family="'Arial-BoldMT'" font-size="24.1014">DEKALB</text>
	
		<text transform="matrix(1 0 0 1 365.2129 157.9883)" opacity="0.6" fill="#808080" enable-background="new    " font-family="'Arial-BoldMT'" font-size="24.1014">GWINNETT</text>
	
		<text transform="matrix(1 0 0 1 145.2314 177.3418)" opacity="0.6" fill="#808080" enable-background="new    " font-family="'Arial-BoldMT'" font-size="24.1014">COBB</text>
</g>
<g id="roads">
	<path fill="none" stroke="#63A69F" stroke-width="2" d="M217.131,347.92c0,0-10.511,0.9-13.213,0.602
		c-2.703-0.299-1.953,1.054-2.703-4.504c-0.75-5.556-2.553-6.006-4.955-11.109c-2.403-5.104,1.05-10.51-0.301-17.566
		s-1.802-9.16-1.351-11.861c0,0,1.8-3.306-0.301-9.912c-2.102-6.604,0.451-17.868,2.229-21.621c1.781-3.756,1.674-7.059,0.934-9.909
		c-0.741-2.854-0.934-5.433-0.934-5.433c7.336-11.438,4.979-12.815,4.979-12.815c-11.412-7.437,0-16.327,0-16.327
		s0.146-7.02,1.649-11.527c1.501-4.502,3.153-16.367,5.706-19.067c2.553-2.703,12.305-9.61,14.636-10.362
		c2.333-0.751,9.689-4.499,11.191-8.255c0,0,25.377,1.799,30.031,1.197c4.655-0.601,11.564,0,19.672-4.504
		c8.109-4.505,20.559,0.9,26.721,7.508c6.165,6.607,15.176,10.36,15.772,11.862c0.604,1.502,3.456,17.72,0,28.083
		c-3.451,10.358,0.903,13.293,1.052,17.309c0.15,4.013-0.148,13.628,4.354,16.932c4.505,3.299,6.52-0.861,4.814,24.623
		c-0.585,8.748-5.267,12.012-5.267,12.012s-4.054,8.56-13.062,8.258c-9.01-0.299-23.427,8.861-24.026,10.212
		c-0.602,1.352-11.563,5.558-15.617,7.657c-4.054,2.104-9.532,4.355-11.824,7.06c-2.292,2.701-4.08,6.994-4.08,6.994"/>
	<path fill="none" stroke="#63A69F" stroke-width="2" d="M202.565,348.58c0,0,1.201,7.597-2.254,10.299
		c-3.454,2.703-5.705,2.852-12.913,9.16c0,0-10.511,9.161-12.313,12.162c-1.802,3.002-14.115,5.555-16.818,6.904
		c-2.703,1.353-16.368,10.661-20.121,11.862c0,0-12.612,5.71-13.814,11.863"/>
	<path fill="none" stroke="#63A69F" stroke-width="2" d="M223.288,331.555c0,0,6.607-7.207,10.211-8.106
		c3.604-0.9,8.258-3.005,7.507-8.858c-0.75-5.855,6.759-5.404,6.759-5.404s-4.655-6.308,0-13.666
		c4.654-7.356,4.059-17.566,5.255-19.972c1.197-2.401,6.607-2.211,6.607-6.961c0-4.753-5.256-4.451-6.757-7.006
		c-1.503-2.554,1.464-13.892-1.953-17.415c0,0-11.804-0.77-15.467-11.92c-4.352-13.252-4.804-19.907-4.955-22.164
		c-0.15-2.256-3.222-2.856-16.136-19.224c0,0-4.606-4.353-9.852-15.467c-5.249-11.113-13.356-11.413-16.81-16.218
		c-3.454-4.805,0.751-8.56-5.706-11.262c-6.456-2.704-16.066-15.017-16.066-15.017s-6.653-6.62-10.16-19.678
		c-3.506-13.058-9.215-12.72-17.321-20.865c-8.105-8.146-8.104-9.046-8.104-9.046"/>
	<path fill="none" stroke="#63A69F" stroke-width="2" d="M162.533,127.263c0,0,2.014-6.35,0-15.527
		c-2.015-9.177,0.839-12.029,5.194-14.432c4.354-2.402,4.205,0.45,7.207-13.365"/>
	<path fill="none" stroke="#63A69F" stroke-width="2" d="M248.064,309.473c0,0,1.743,8.135,2.043,11.59
		c0.3,3.453-1.049,10.812-1.049,10.812"/>
	<path fill="none" stroke="#63A69F" stroke-width="2" d="M250.918,244.16c0,0,7.356-4.059,11.711-6.385
		c0,0,7.057-3.824,6.757-11.032c-0.299-7.208-6.006-7.358-5.332-17.87c0.676-10.511,3.679,1.326,2.629-16.604
		c0,0,2.002-6.577,3.292-8.922c1.287-2.347,1.364-11.112,0.838-14.415c-0.524-3.303-1.726-13.5,4.431-23.793
		c6.157-10.294,5.856-16.699,5.856-19.428s7.511-8.135,10.888-14.892c3.378-6.757,9.23-10.662,14.34-11.712
		c5.104-1.051,12.913-11.112,13.214-18.62c0,0,8.494-10.957,11.755-12.46"/>
	<path fill="none" stroke="#63A69F" stroke-width="2" d="M268.688,230.96c0,0,9.483-4.065,14.778-7.519
		c5.292-3.455,12.65-3.078,12.65-3.078s2.704-1.428,9.083-12.164c6.384-10.736,15.24-15.241,21.694-18.996
		c6.457-3.753,6.46-6.757,22.076-8.859c0,0,13.968-10.21,21.774-11.711c0,0,13.513-7.508,16.517-9.911
		c3.004-2.402,24.477-7.058,27.328-20.572c2.854-13.514,10.514-13.665,20.726-27.78c10.211-14.114,20.87-19.821,24.323-25.678
		c3.453-5.855,18.319-31.983,24.624-34.687"/>
	<path fill="none" stroke="#63A69F" stroke-width="2" d="M442.16,102.053c0,0,13.576-5.622,29.94-5.622
		c16.368,0,28.529-10.088,31.685-10.539c3.154-0.451,17.72-3.454,24.928-4.805c7.207-1.351,18.293-1.485,19.652-5.22"/>
	<path fill="none" stroke="#63A69F" stroke-width="2" d="M140.203,256.625c0,0,16.188,2.477,23.171,2.477
		c6.984,0,14.866,4.955,18.92,5.065c4.052,0.112,13.063-3.491,19.37,1.916c6.308,5.405,8.784-1.312,11.487,2.499
		c2.703,3.809,3.379,4.045,15.767,5.84c12.388,1.797,6.531,2.922,19.145,1.12c12.614-1.801,10.361,1.196,11.714,1.388
		c1.351,0.191,9.269-1.609,17.135-1.388c7.865,0.226,11.02,3.604,11.245,11.938c0.223,8.334,15.765,7.207,19.37,7.207
		c3.604,0,19.396-3.166,25.354-2.371c5.952,0.795,17.44,1.472,21.271,4.397c3.828,2.931,6.21,3.829,26.08,2.479
		c19.866-1.354,30.903,1.352,36.312,3.604c5.406,2.252,5.405,2.252,5.405,2.252"/>
	<g>
		<g>
			<path fill="#BF1B00" d="M236.301,271.59c-0.353-2.078-0.942-3.816-0.942-3.816c-3.037,5.052-7.253,0-7.253,0
				c-3.535,4.367-7.072,0-7.072,0s-0.508,1.518-0.843,3.816"/>
			<path fill="#003965" d="M220.073,272.479c-0.783,4.879,0.724,9.756,8.124,9.756c7.709,0,8.642-5.565,8.229-9.756"/>
		</g>
		<text transform="matrix(1 0 0 1 224.2905 279.2949)" fill="#FFFFFF" font-family="'Arial-BoldMT'" font-size="7.3839">20</text>
	</g>
	<g>
		<g>
			<path fill="#BF1B00" d="M368.976,294.408c-0.35-2.079-0.939-3.817-0.939-3.817c-3.037,5.052-7.251,0-7.251,0
				c-3.536,4.365-7.072,0-7.072,0s-0.508,1.517-0.844,3.817"/>
			<path fill="#003965" d="M352.749,295.297c-0.783,4.875,0.724,9.755,8.123,9.755c7.711,0,8.642-5.565,8.228-9.755"/>
		</g>
		<text transform="matrix(1 0 0 1 356.9658 302.1133)" fill="#FFFFFF" font-family="'Arial-BoldMT'" font-size="7.3839">20</text>
	</g>
	<g>
		<g>
			<path fill="#BF1B00" d="M375.22,165.988c-0.351-2.077-0.939-3.815-0.939-3.815c-3.036,5.049-7.251,0-7.251,0
				c-3.537,4.364-7.074,0-7.074,0s-0.507,1.515-0.842,3.815"/>
			<path fill="#003965" d="M358.992,166.877c-0.782,4.878,0.725,9.755,8.125,9.755c7.709,0,8.641-5.565,8.227-9.755"/>
		</g>
		<text transform="matrix(1 0 0 1 363.209 173.6943)" fill="#FFFFFF" font-family="'Arial-BoldMT'" font-size="7.3839">85</text>
	</g>
	<g>
		<g>
			<path fill="#BF1B00" d="M344.212,252.283c-0.352-2.08-0.939-3.816-0.939-3.816c-3.036,5.049-7.256,0-7.256,0
				c-3.533,4.364-7.069,0-7.069,0s-0.51,1.516-0.846,3.816"/>
			<path fill="#003965" d="M327.984,253.172c-0.78,4.876,0.724,9.756,8.124,9.756c7.709,0,8.643-5.566,8.229-9.756"/>
		</g>
		<text transform="matrix(1 0 0 1 330.0732 259.9893)" fill="#FFFFFF" font-family="'Arial-BoldMT'" font-size="7.3839">285</text>
	</g>
	<g>
		<g>
			<path fill="#BF1B00" d="M201.617,278.661c-0.351-2.079-0.94-3.815-0.94-3.815c-3.037,5.051-7.253,0-7.253,0
				c-3.534,4.363-7.071,0-7.071,0s-0.509,1.516-0.844,3.815"/>
			<path fill="#003965" d="M185.392,279.55c-0.783,4.876,0.723,9.755,8.123,9.755c7.709,0,8.642-5.563,8.228-9.755"/>
		</g>
		<text transform="matrix(1 0 0 1 187.4814 286.3672)" fill="#FFFFFF" font-family="'Arial-BoldMT'" font-size="7.3839">285</text>
	</g>
	<g>
		<g>
			<path fill="#BF1B00" d="M262.192,174.653c-0.353-2.078-0.943-3.816-0.943-3.816c-3.036,5.05-7.252,0-7.252,0
				c-3.536,4.364-7.072,0-7.072,0s-0.506,1.516-0.843,3.816"/>
			<path fill="#003965" d="M245.965,175.542c-0.783,4.876,0.724,9.756,8.123,9.756c7.709,0,8.643-5.567,8.229-9.756"/>
		</g>
		<text transform="matrix(1 0 0 1 248.0552 182.3594)" fill="#FFFFFF" font-family="'Arial-BoldMT'" font-size="7.3839">285</text>
	</g>
	<g>
		<ellipse fill="#FFFFFF" stroke="#000000" cx="300.766" cy="102.401" rx="8.789" ry="5.228"/>
		<text transform="matrix(1 0 0 1 294.8682 104.625)" font-family="'Arial-BoldMT'" font-size="6.9384">400</text>
	</g>
	<g>
		<g>
			<path fill="#BF1B00" d="M153.843,95.258c-0.351-2.078-0.942-3.816-0.942-3.816c-3.037,5.049-7.252,0-7.252,0
				c-3.536,4.364-7.072,0-7.072,0s-0.507,1.515-0.844,3.816"/>
			<path fill="#003965" d="M137.617,96.147c-0.783,4.877,0.724,9.755,8.123,9.755c7.709,0,8.641-5.565,8.229-9.755"/>
		</g>
		<text transform="matrix(1 0 0 1 141.834 102.9648)" fill="#FFFFFF" font-family="'Arial-BoldMT'" font-size="7.3839">75</text>
	</g>
	<g>
		<g>
			<path fill="#BF1B00" d="M259.337,318.676c-0.352-2.078-0.942-3.816-0.942-3.816c-3.038,5.053-7.252,0-7.252,0
				c-3.537,4.365-7.072,0-7.072,0s-0.508,1.519-0.844,3.816"/>
			<path fill="#003965" d="M243.111,319.564c-0.784,4.877,0.723,9.754,8.123,9.754c7.708,0,8.641-5.564,8.228-9.754"/>
		</g>
		<text transform="matrix(1 0 0 1 247.3271 326.3809)" fill="#FFFFFF" font-family="'Arial-BoldMT'" font-size="7.3839">75</text>
	</g>
	<g>
		<g>
			<path fill="#BF1B00" d="M232.395,197.277c-0.352-2.078-0.942-3.816-0.942-3.816c-3.038,5.05-7.252,0-7.252,0
				c-3.537,4.365-7.072,0-7.072,0s-0.508,1.516-0.845,3.816"/>
			<path fill="#003965" d="M216.167,198.166c-0.783,4.878,0.724,9.756,8.124,9.756c7.709,0,8.642-5.567,8.228-9.756"/>
		</g>
		<text transform="matrix(1 0 0 1 220.3838 204.9824)" fill="#FFFFFF" font-family="'Arial-BoldMT'" font-size="7.3839">75</text>
	</g>
	<g>
		<g>
			<path fill="#BF1B00" d="M178.535,378.884c-0.352-2.075-0.941-3.815-0.941-3.815c-3.038,5.054-7.253,0-7.253,0
				c-3.536,4.365-7.072,0-7.072,0s-0.507,1.519-0.844,3.815"/>
			<path fill="#003965" d="M162.308,379.771c-0.783,4.879,0.724,9.756,8.123,9.756c7.709,0,8.642-5.565,8.228-9.756"/>
		</g>
		<text transform="matrix(1 0 0 1 166.5244 386.5898)" fill="#FFFFFF" font-family="'Arial-BoldMT'" font-size="7.3839">85</text>
	</g>
</g>
</svg>
